<svg width="800" height="800" viewBox="0 0 24 24" fill="none" xmlns="http://www.w3.org/2000/svg">
<symbol id="email-icon" viewBox="0 0 24 24">
<path fill-rule="evenodd" clip-rule="evenodd" d="M3.28397 12.1083C3.70912 7.22201 8.02178 3.25 12.8523 3.25c2.8113 0 4.8463.91965 6.1287 2.31536 1.2808 1.39388 1.9387 3.40094 1.7315 5.83104-.4514 3.4808-1.851 4.4288-2.5167 4.5733-.3603.0782-.6204-.021-.7629-.1435-.1273-.1095-.2439-.3052-.1951-.6518l1.0343-7.757c.073-.54744-.3116-1.0504-.8591-1.12339l-.4956-.06609c-.5474-.07299-1.0504.31163-1.1234.85907l-.0147.11067c-.5079-.49345-1.1247-.88857-1.8451-1.14707-3.0847-1.10694-6.34614.9156-7.49627 4.03111-1.15155 3.1193.03057 6.7562 3.12789 7.8677 1.95948.7031 3.99018.1436 5.50578-1.1568.1801.3528.427.6674.7312.9291.7853.6752 1.8613.9216 2.9233.6911 2.1772-.4726 3.9617-2.7554 4.4694-6.7241.0021-.0165.0039-.033.0053-.0495.2639-3.01339-.5385-5.76253-2.3789-7.76536C18.9789 1.86813 16.2234.75 12.8523.75 6.70601.75 1.32927 5.73254.79338 11.8917.250578 18.1302 4.86475 23.25 11.1008 23.25c1.9247 0 3.1569-.1588 4.9633-.9225l.2302-.0974c.5087-.2151.7468-.8018.5317-1.3105l-.1947-.4605c-.2151-.5087-.8018-.7467-1.3105-.5316l-.2303.0973c-1.4189.5999-2.3008.7252-3.9897.7252-4.74085 0-8.23506-3.8348-7.81683-8.6417Zm5.49924-1.1608c.79611-2.15649 2.81899-3.07764 4.30659-2.54383 1.475.52929 2.4217 2.49623 1.627 4.64883-.7961 2.1565-2.819 3.0776-4.3066 2.5438-1.47496-.5293-2.42168-2.4962-1.62699-4.6488Z"/>
</symbol>
</svg>