<svg width="800" height="800" viewBox="0 0 16 16" xmlns="http://www.w3.org/2000/svg">
<symbol id="external-icon" viewBox="0 0 16 16">
<path data-name="Path 113" d="M16 9.5v4a2.5 2.5 0 0 1-2.5 2.5h-11A2.5 2.5 0 0 1 0 13.5v-11A2.5 2.5 0 0 1 2.5 0h4a.5.5 0 0 1 0 1h-4A1.5 1.5 0 0 0 1 2.5v11A1.5 1.5 0 0 0 2.5 15h11a1.5 1.5 0 0 0 1.5-1.5v-4a.5.5 0 0 1 1 0ZM15.962.309A.5.5 0 0 0 15.5 0h-5a.5.5 0 0 0 0 1h3.793L4.146 11.146a.5006316.5006316 0 0 0 .708.708L15 1.707V5.5a.5.5 0 0 0 1 0v-5a.5.5 0 0 0-.038-.191Z" fill="currentColor"/>
</symbol>
</svg>