<svg width="800" height="800" viewBox="0 0 24 24" fill="none" xmlns="http://www.w3.org/2000/svg">
<symbol id="letter-icon" viewBox="0 0 24 24">
<path fill-rule="evenodd" clip-rule="evenodd" d="M10.9463 1.25h2.1074c1.1328-.00002 2.0586-.00004 2.7894.09822.764.10271 1.4263.32499 1.955.85368.5287.5287.751 1.19104.8537 1.95499.0505.3757.075.8029.087 1.28326 1.0582.17071 1.9254.50677 2.62 1.20129.7483.74836 1.0804 1.69731 1.2381 2.86973.1531 1.13923.1531 2.59483.1531 4.43263v.1128c0 1.8378 0 3.2934-.1531 4.4326-.1577 1.1724-.4898 2.1214-1.2381 2.8698-.7484.7483-1.6974 1.0804-2.8698 1.2381-1.1392.1531-2.5948.1531-4.4326.1531H9.94359c-1.83776 0-3.2934 0-4.43261-.1531-1.17242-.1577-2.12137-.4898-2.86974-1.2381-.74836-.7484-1.08048-1.6974-1.2381-2.8698-.15317-1.1392-.15316-2.5948-.15314-4.4326v-.1128c-.00002-1.8378-.00003-3.2934.15314-4.43263.15762-1.17242.48974-2.12137 1.2381-2.86973.69452-.69452 1.56178-1.03058 2.62-1.20129.01192-.48036.03647-.90756.08698-1.28326.10271-.76395.32499-1.42629.85368-1.95499.5287-.52869 1.19103-.75097 1.95499-.85368.73086-.09826 1.65659-.09824 2.78941-.09822ZM5.25 6.96613c-.73099.14675-1.19425.38212-1.5481.73597-.42321.42321-.67688 1.00285-.81214 2.00894C2.75159 10.7387 2.75 12.0934 2.75 14.0002s.00159 3.2615.13976 4.2891c.13526 1.0061.38893 1.5858.81214 2.009.42321.4232 1.00286.6769 2.00895.8121 1.02766.1382 2.38233.1398 4.28915.1398h4c1.9068 0 3.2615-.0016 4.2892-.1398 1.006-.1352 1.5857-.3889 2.0089-.8121s.6769-1.0029.8121-2.009c.1382-1.0276.1398-2.3823.1398-4.2891 0-1.9068-.0016-3.2615-.1398-4.28916-.1352-1.00609-.3889-1.58573-.8121-2.00894-.3538-.35385-.8171-.58922-1.5481-.73597V8.1265c0 .04614 0 .09172.0001.13677.0008.78605.0015 1.40867-.2597 1.96643-.2613.5577-.74.9558-1.3444 1.4584-.0346.0288-.0697.0579-.1051.0875l-.7572.631c-.8864.7386-1.6048 1.3373-2.2389 1.7451-.6605.4248-1.3037.6932-2.0448.6932-.7411 0-1.3843-.2684-2.04482-.6932-.63406-.4078-1.35246-1.0065-2.23881-1.7451l-.75725-.631c-.03544-.0296-.07048-.0587-.10511-.0875-.60441-.5026-1.08315-.9007-1.34438-1.4584-.26123-.55776-.26057-1.18038-.25973-1.96644.00005-.04504.0001-.09062.0001-.13676V6.96613Zm3.10676-4.13129c-.59762.08035-.89066.22418-1.0942.42772-.20354.20354-.34737.49658-.42772 1.0942C6.75159 4.97595 6.75 5.80029 6.75 7v1.1265c0 .99131.01657 1.25036.11801 1.46695.10145.21658.28985.39515 1.05139 1.02975l.71963.5997c.93296.7775 1.58067 1.3155 2.12757 1.6672.5293.3405.8883.4548 1.2334.4548.3451 0 .7041-.1143 1.2334-.4548.5469-.3517 1.1946-.8897 2.1276-1.6672l.7196-.5997c.7615-.6346.9499-.81317 1.0514-1.02975.1014-.21659.118-.47564.118-1.46695V7c0-1.19971-.0016-2.02405-.0848-2.64324-.0804-.59762-.2242-.89066-.4278-1.0942-.2035-.20354-.4965-.34737-1.0942-.42772C15.0241 2.75159 14.1997 2.75 13 2.75h-2c-1.19971 0-2.02405.00159-2.64324.08484ZM9.25 6c0-.41421.33579-.75.75-.75h4c.4142 0 .75.33579.75.75 0 .41422-.3358.75-.75.75h-4c-.41421 0-.75-.33578-.75-.75Zm1 3c0-.41421.3358-.75.75-.75h2c.4142 0 .75.33579.75.75 0 .41422-.3358.75-.75.75h-2c-.4142 0-.75-.33578-.75-.75Z"/>
</symbol>
</svg>