<svg width="800" height="800" viewBox="0 0 24 24" fill="none" xmlns="http://www.w3.org/2000/svg">
<symbol id="more-icon" viewBox="0 0 24 24">
<path d="M12 6.25c.4142 0 .75.33579.75.75v6c0 .4142-.3358.75-.75.75s-.75-.3358-.75-.75V7c0-.41421.3358-.75.75-.75ZM13 16c0 .5523-.4477 1-1 1s-1-.4477-1-1 .4477-1 1-1 1 .4477 1 1Z" fill="currentColor"/>
<path fill-rule="evenodd" clip-rule="evenodd" d="M12.0574 1.25h-.1148c-2.30836-.00001-4.11741-.00002-5.52889.18975-1.44474.19424-2.58476.59958-3.47957 1.49439-.89481.89481-1.30015 2.03483-1.49439 3.47957-.18977 1.41148-.18976 3.22051-.18975 5.52889v.1148c-.00001 2.3084-.00002 4.1174.18975 5.5289.19424 1.4447.59958 2.5848 1.49439 3.4796.89481.8948 2.03483 1.3001 3.47957 1.4944 1.41148.1897 3.22052.1897 5.52889.1897h.1148c2.3084 0 4.1174 0 5.5289-.1897 1.4447-.1943 2.5848-.5996 3.4796-1.4944.8948-.8948 1.3001-2.0349 1.4944-3.4796.1897-1.4115.1897-3.2205.1897-5.5289v-.1148c0-2.30837 0-4.11741-.1897-5.52889-.1943-1.44474-.5996-2.58476-1.4944-3.47957-.8948-.89481-2.0349-1.30015-3.4796-1.49439-1.4115-.18977-3.2205-.18976-5.5289-.18975ZM3.9948 3.9948c.56965-.56966 1.34037-.89655 2.61878-1.06843C7.91356 2.75159 9.62177 2.75 12 2.75c2.3782 0 4.0864.00159 5.3864.17637 1.2784.17188 2.0491.49877 2.6188 1.06843.5697.56965.8966 1.34037 1.0684 2.61878.1748 1.29998.1764 3.00819.1764 5.38642 0 2.3782-.0016 4.0864-.1764 5.3864-.1718 1.2784-.4987 2.0491-1.0684 2.6188-.5697.5697-1.3404.8966-2.6188 1.0684-1.3.1748-3.0082.1764-5.3864.1764-2.37823 0-4.08644-.0016-5.38642-.1764-1.27841-.1718-2.04913-.4987-2.61878-1.0684-.56966-.5697-.89655-1.3404-1.06843-2.6188C2.75159 16.0864 2.75 14.3782 2.75 12c0-2.37823.00159-4.08644.17637-5.38642.17188-1.27841.49877-2.04913 1.06843-2.61878Z" fill="currentColor"/>
</symbol>
</svg>