<svg width="800" height="800" viewBox="0 0 24 24" fill="none" xmlns="http://www.w3.org/2000/svg">
<symbol id="phone-icon" viewBox="0 0 24 24">
<path fill-rule="evenodd" clip-rule="evenodd" d="M4.7177 3.0919c1.22618-1.29094 3.2544-1.04907 4.26799.38451l1.26101 1.78348c.8107 1.14667.7422 2.74084-.2253 3.75951l-.2449.25779c-.00068.00178-.0014.00371-.00214.0058-.01294.03636-.04566.15214-.01346.3719.06675.45551.4184 1.38121 1.8461 2.88431 1.4321 1.5077 2.3008 1.8631 2.7033 1.9285.1737.0282.2645.0037.2935-.0065l.4086-.4302c.8738-.92 2.2361-1.1012 3.3346-.4689l1.9105 1.0996c1.6329.9399 2.013 3.2391.708 4.613l-1.4205 1.4956c-.4434.4668-1.048.8652-1.795.9389-1.8239.1801-6.049-.0544-10.47839-4.7177-4.13317-4.3515-4.91835-8.13637-5.0176-9.98559l.6661-.03575-.6661.03575c-.04904-.91367.35823-1.69736.89409-2.26151l1.5696-1.6525Zm3.0432 1.25047c-.51235-.72464-1.43278-.76788-1.95562-.21744l-1.5696 1.6525c-.33139.34889-.50526.74878-.48383 1.14809.08104 1.50981.73122 4.95208 4.60734 9.03288 4.06421 4.2789 7.80841 4.3997 9.24341 4.2581.2838-.028.5757-.1855.8548-.4792l1.4205-1.4956c.6128-.6452.4522-1.8075-.3687-2.2799l-1.9105-1.0997c-.5127-.2951-1.1133-.2039-1.4987.2019l-.4555.4795-.5271-.5007c.5271.5007.5264.5014.5258.5022l-.0015.0014-.0029.0031-.0064.0065-.0143.0141c-.0103.01-.0222.0209-.0356.0327-.0269.0236-.0602.0505-.1001.0788-.0802.0568-.1869.1193-.3218.1725-.276.1089-.6405.1673-1.0907.0942-.8776-.1425-2.0277-.7728-3.5505-2.3761-1.52738-1.608-2.11194-2.8077-2.24265-3.69986-.06653-.45407-.01329-.81766.08441-1.09223.04805-.13503.10478-.24269.1571-.32445.02609-.04077.05096-.07491.07294-.10268.01099-.01389.02126-.0262.03062-.03695l.01332-.01499.00611-.00663.0029-.00311.00141-.0015c.00069-.00073.00138-.00145.53305.50353l-.53166-.50499.28681-.30197c.44554-.46906.51027-1.26345.08813-1.86051L7.7609 4.34237Z"/>
<path d="M13.2595 1.87983c.0662-.40889.4527-.68626.8616-.62007.0253.00485.1068.02007.1494.02957.0854.01901.2044.04826.3528.09149.2968.08644.7114.22885 1.209.45698.9963.45676 2.3221 1.25576 3.6979 2.63156 1.3758 1.3758 2.1748 2.70161 2.6315 3.69789.2282.49762.3706.91222.457 1.209.0432.14841.0725.26744.0915.35276.0095.04267.0165.07693.0213.10224l.0058.0312c.0661.40885-.2087.81145-.6176.87765-.4077.066-.7918-.2101-.8596-.617-.0021-.011-.0079-.0403-.014-.068-.0124-.0554-.0337-.14322-.0675-.25938-.0677-.23233-.1852-.57766-.3804-1.00334-.3898-.85031-1.0908-2.02449-2.3287-3.26236-1.2378-1.23786-2.412-1.93885-3.2623-2.32868-.4257-.19516-.771-.31269-1.0034-.38037-.1161-.03383-.2621-.06734-.3175-.07967-.407-.06783-.6928-.45375-.6268-.86147Z"/>
<path fill-rule="evenodd" clip-rule="evenodd" d="M13.4861 5.32931c.1138-.39828.5289-.6289.9272-.5151l-.2061.72114c.2061-.72114.2064-.72104.2068-.72094l.0007.00021.0015.00044.0034.00098.0077.00231.0198.00616c.0151.00483.0339.01111.0564.01907.0449.01594.1042.0386.177.06981.1457.06243.3448.15885.5893.30356.4895.28969 1.1577.77086 1.9426 1.55584.785.78497 1.2662 1.45316 1.5559 1.94262.1447.24451.2411.44358.3035.58926.0312.07281.0539.13216.0698.17708.008.02245.0143.04128.0191.05635l.0062.01979.0023.00775.001.00334.0004.00153.0002.00073c.0001.00036.0002.00071-.7209.20675l.7211-.20604c.1138.39828-.1168.81335-.5151.92715-.3949.1129-.8063-.1129-.9242-.50496l-.0037-.01078c-.0053-.01503-.0164-.04461-.0349-.08781-.037-.08634-.1041-.22757-.2157-.41616-.223-.37674-.6257-.94599-1.3256-1.64594-.7-.69996-1.2692-1.10266-1.646-1.32563-.1886-.11162-.3298-.17871-.4161-.21572-.0432-.01851-.0728-.02954-.0878-.03488l-.0108-.00369c-.3921-.11788-.6178-.52933-.505-.92422Z"/>
</symbol>
</svg>