<svg width="800" height="800" viewBox="0 0 24 24" fill="none" xmlns="http://www.w3.org/2000/svg">
<symbol id="phone-icon" viewBox="0 0 24 24">
<path d="M2.00589 4.54166C1.905 3.11236 3.11531 2 4.54522 2h3.06084c.734 0 1.39601.44226 1.67832 1.1212l1.27992 3.07826c.3118.74986.0905 1.61598-.5425 2.12346l-.79786.63962c-.35606.28544-.47711.77764-.266 1.18226 1.08496 2.0793 2.68846 3.844 4.63846 5.1219.4116.2697.9553.1624 1.2624-.2222l.8314-1.0415c.5064-.6343 1.3707-.856 2.119-.5436l3.0719 1.2826c.6776.2829 1.1189.9463 1.1189 1.6818V19.5c0 1.4329-1.1511 2.5955-2.5774 2.4941-9.1205-.6489-16.77013-8.2924-17.41671-17.45244Z"/>
</symbol>
</svg>